<?xml version="1.0" standalone="no"?>
<!DOCTYPE svg PUBLIC "-//W3C//DTD SVG 20010904//EN"
 "http://www.w3.org/TR/2001/REC-SVG-20010904/DTD/svg10.dtd">
<svg version="1.0" xmlns="http://www.w3.org/2000/svg"
 width="1024.000000pt" height="1024.000000pt" viewBox="0 0 1024.000000 1024.000000"
 preserveAspectRatio="xMidYMid meet">

<g transform="translate(0.000000,1024.000000) scale(0.100000,-0.100000)"
fill="#000000" stroke="none">
<path d="M4770 9064 c-415 -69 -672 -147 -945 -286 -285 -145 -487 -290 -723
-522 -154 -151 -270 -293 -403 -491 -88 -132 -245 -425 -281 -525 -72 -198
-122 -362 -138 -455 -11 -60 -23 -117 -26 -127 -2 -9 -13 -92 -24 -185 l-19
-168 25 -22 c34 -31 135 -32 199 -2 51 24 60 44 70 155 4 39 10 77 15 84 28
46 729 -75 925 -160 58 -25 61 -23 96 69 28 75 73 160 132 251 70 107 118 164
302 359 199 210 246 248 341 278 55 17 108 18 779 17 815 -1 818 -1 918 -67
78 -52 417 -388 417 -414 0 -4 6 -14 14 -22 7 -9 28 -43 45 -75 17 -33 35 -64
40 -70 5 -6 19 -40 31 -75 11 -35 27 -73 34 -85 8 -11 27 -59 42 -106 16 -47
38 -92 49 -101 18 -16 23 -15 75 8 109 49 173 68 314 93 32 6 75 19 95 29 20
11 59 22 86 26 28 4 82 13 120 20 88 17 276 28 291 18 21 -16 39 -79 35 -130
-2 -41 2 -61 19 -88 l22 -35 86 0 c66 0 96 5 122 19 l35 19 -3 78 c-1 44 -7
126 -13 184 -14 140 -70 423 -69 349 0 -8 5 -34 11 -58 19 -84 49 -276 48
-311 -1 -19 -9 22 -19 91 -59 401 -183 742 -394 1082 -83 134 -249 353 -265
349 -7 -1 -10 2 -6 8 6 9 -109 140 -150 170 -11 8 -29 14 -40 12 -19 -2 -19
-1 -1 6 17 7 3 23 -100 110 -65 56 -125 100 -131 97 -7 -2 -12 1 -10 6 5 23
-269 198 -458 291 -136 68 -359 152 -402 152 -20 0 -28 3 -20 8 6 4 8 8 4 8
-5 0 -50 11 -100 24 -259 69 -476 98 -747 100 -113 0 -234 -2 -270 -6 -66 -8
-236 -33 -300 -44 -19 -4 -33 -4 -29 -1 3 4 75 18 160 32 297 51 652 45 968
-16 57 -11 105 -18 107 -16 5 5 -67 21 -226 49 -152 27 -627 35 -760 12z
m-334 -85 c-44 -11 -81 -17 -83 -15 -6 6 108 34 137 34 14 0 -11 -9 -54 -19z
m1189 -9 c3 -5 1 -10 -4 -10 -6 0 -11 5 -11 10 0 6 2 10 4 10 3 0 8 -4 11 -10z
m-75 -235 c58 -11 119 -19 137 -19 17 -1 29 -5 26 -10 -4 -5 6 -6 21 -2 16 4
25 3 22 -2 -3 -5 38 -22 92 -37 53 -15 119 -36 146 -47 26 -10 58 -16 70 -13
14 4 17 3 8 -3 -10 -7 -3 -13 27 -25 22 -9 46 -15 53 -13 7 1 9 1 5 -2 -5 -2
47 -32 115 -66 147 -73 194 -103 242 -152 19 -20 48 -46 64 -58 124 -92 499
-466 576 -574 129 -182 260 -422 351 -642 105 -255 105 -253 94 -267 -6 -7
-15 -11 -19 -8 -5 3 -11 1 -15 -5 -4 -6 7 -10 27 -11 18 0 42 -4 53 -9 l20 -9
-20 0 c-40 -2 -264 39 -376 68 -314 82 -539 186 -844 388 -360 240 -395 252
-729 262 -255 7 -1364 -2 -1411 -12 -16 -3 -7 0 20 7 34 10 42 14 25 15 -86 3
-218 -59 -450 -210 -151 -99 -337 -207 -478 -278 -162 -81 -478 -171 -692
-196 -30 -3 -67 -8 -81 -11 -18 -3 -28 0 -32 10 -6 16 61 224 110 341 130 309
323 600 557 844 87 90 306 271 365 301 20 10 45 27 55 39 11 12 25 21 32 21 7
0 25 10 41 23 15 12 39 28 53 35 14 7 45 24 70 38 90 51 269 138 365 177 40
16 124 39 225 62 30 7 73 17 95 24 22 6 85 16 140 21 55 6 125 14 155 19 30 4
174 7 320 6 205 -2 289 -6 370 -20z m665 -25 c3 -6 -1 -7 -9 -4 -18 7 -21 14
-7 14 6 0 13 -4 16 -10z m228 3 c-7 -2 -19 -2 -25 0 -7 3 -2 5 12 5 14 0 19
-2 13 -5z m-505 -53 c63 -20 124 -48 74 -35 -46 13 -157 54 -147 54 6 0 39 -8
73 -19z m612 0 c13 -8 13 -10 -2 -10 -9 0 -20 5 -23 10 -8 13 5 13 25 0z
m-440 -60 c0 -5 -2 -10 -4 -10 -3 0 -8 5 -11 10 -3 6 -1 10 4 10 6 0 11 -4 11
-10z m106 -56 c18 -14 18 -14 -6 -3 -31 14 -36 19 -24 19 6 0 19 -7 30 -16z
m529 -44 c25 -11 -1 -11 -35 0 -20 6 -21 8 -5 8 11 0 29 -3 40 -8z m100 -60
c3 -6 -1 -7 -9 -4 -18 7 -21 14 -7 14 6 0 13 -4 16 -10z m20 -120 c3 -6 -1 -7
-9 -4 -18 7 -21 14 -7 14 6 0 13 -4 16 -10z m-155 -67 c0 -7 -39 17 -46 28 -3
6 5 3 20 -6 14 -10 26 -19 26 -22z m135 -107 c6 -4 1 -4 -10 2 -11 6 -29 21
-40 34 -19 22 -19 22 10 -2 17 -14 35 -29 40 -34z m60 26 c-3 -3 -11 0 -18 7
-9 10 -8 11 6 5 10 -3 15 -9 12 -12z m-11 -68 c7 -19 2 -18 -19 6 -16 17 -16
20 -3 15 9 -4 19 -13 22 -21z m331 8 c-3 -3 -11 0 -18 7 -9 10 -8 11 6 5 10
-3 15 -9 12 -12z m-104 -239 c13 -16 12 -17 -3 -4 -10 7 -18 15 -18 17 0 8 8
3 21 -13z m236 -49 c-3 -3 -12 -4 -19 -1 -8 3 -5 6 6 6 11 1 17 -2 13 -5z
m-3110 -370 c-3 -3 -12 -4 -19 -1 -8 3 -5 6 6 6 11 1 17 -2 13 -5z m-1460
-660 c-3 -3 -12 -4 -19 -1 -8 3 -5 6 6 6 11 1 17 -2 13 -5z m-70 -10 c-3 -3
-12 -4 -19 -1 -8 3 -5 6 6 6 11 1 17 -2 13 -5z m-80 -10 c-3 -3 -12 -4 -19 -1
-8 3 -5 6 6 6 11 1 17 -2 13 -5z m5330 -366 c-2 -18 -4 -4 -4 32 0 36 2 50 4
33 2 -18 2 -48 0 -65z"/>
<path d="M4505 7500 l-150 -6 179 -2 c99 -1 176 1 173 5 -9 9 -28 9 -202 3z"/>
<path d="M5128 7503 c101 -2 263 -2 360 0 97 1 15 2 -183 2 -198 0 -278 -1
-177 -2z"/>
<path d="M5695 7495 c6 -2 71 -5 145 -8 79 -2 118 0 95 4 -38 7 -261 11 -240
4z"/>
<path d="M6027 7461 c63 -23 158 -71 227 -115 72 -45 76 -48 76 -43 0 3 -37
29 -82 58 -87 55 -224 119 -255 119 -10 -1 5 -9 34 -19z"/>
<path d="M6345 7293 c11 -12 162 -116 185 -128 31 -16 -6 12 -85 66 -88 61
-116 78 -100 62z"/>
<path d="M6595 7125 c22 -19 106 -63 90 -48 -5 5 -32 22 -60 37 -27 15 -41 20
-30 11z"/>
<path d="M6905 6965 c39 -19 75 -34 80 -34 6 0 -23 16 -64 35 -40 19 -76 34
-80 33 -3 0 26 -16 64 -34z"/>
<path d="M7060 6905 c46 -18 64 -17 25 0 -16 8 -37 14 -45 14 -8 0 1 -7 20
-14z"/>
<path d="M7135 6881 c11 -4 36 -11 55 -15 24 -4 29 -3 15 3 -11 4 -36 11 -55
15 -24 4 -29 3 -15 -3z"/>
<path d="M7269 6844 c25 -8 61 -16 80 -19 20 -3 5 4 -34 15 -79 22 -113 25
-46 4z"/>
<path d="M7403 6813 c9 -2 23 -2 30 0 6 3 -1 5 -18 5 -16 0 -22 -2 -12 -5z"/>
<path d="M7458 6803 c6 -2 18 -2 25 0 6 3 1 5 -13 5 -14 0 -19 -2 -12 -5z"/>
<path d="M7508 6793 c6 -2 18 -2 25 0 6 3 1 5 -13 5 -14 0 -19 -2 -12 -5z"/>
<path d="M5778 8993 c7 -3 16 -2 19 1 4 3 -2 6 -13 5 -11 0 -14 -3 -6 -6z"/>
<path d="M5818 8983 c7 -3 16 -2 19 1 4 3 -2 6 -13 5 -11 0 -14 -3 -6 -6z"/>
<path d="M5858 8973 c7 -3 16 -2 19 1 4 3 -2 6 -13 5 -11 0 -14 -3 -6 -6z"/>
<path d="M5928 8953 c7 -3 16 -2 19 1 4 3 -2 6 -13 5 -11 0 -14 -3 -6 -6z"/>
<path d="M6105 8896 c134 -48 222 -84 308 -127 31 -16 57 -27 57 -24 0 20
-430 197 -474 194 -6 0 43 -19 109 -43z"/>
<path d="M6500 8726 c0 -3 14 -12 30 -21 17 -9 30 -13 30 -11 0 3 -13 12 -30
21 -16 9 -30 13 -30 11z"/>
<path d="M6570 8686 c0 -3 9 -10 20 -16 11 -6 20 -8 20 -6 0 3 -9 10 -20 16
-11 6 -20 8 -20 6z"/>
<path d="M6625 8653 c16 -16 195 -134 195 -129 0 3 -39 32 -87 64 -98 65 -123
80 -108 65z"/>
<path d="M6830 8517 c0 -2 28 -25 63 -52 34 -26 54 -39 44 -28 -18 20 -107 87
-107 80z"/>
<path d="M6990 8385 c13 -14 26 -25 28 -25 3 0 -5 11 -18 25 -13 14 -26 25
-28 25 -3 0 5 -11 18 -25z"/>
<path d="M7065 8320 c21 -22 41 -40 44 -40 3 0 -13 18 -34 40 -21 22 -41 40
-44 40 -3 0 13 -18 34 -40z"/>
<path d="M7230 8155 c13 -14 26 -25 28 -25 3 0 -5 11 -18 25 -13 14 -26 25
-28 25 -3 0 5 -11 18 -25z"/>
<path d="M7310 8066 c0 -2 8 -10 18 -17 15 -13 16 -12 3 4 -13 16 -21 21 -21
13z"/>
<path d="M7350 8016 c0 -2 8 -10 18 -17 15 -13 16 -12 3 4 -13 16 -21 21 -21
13z"/>
<path d="M7380 7976 c0 -2 8 -10 18 -17 15 -13 16 -12 3 4 -13 16 -21 21 -21
13z"/>
<path d="M7410 7936 c0 -2 8 -10 18 -17 15 -13 16 -12 3 4 -13 16 -21 21 -21
13z"/>
<path d="M7460 7866 c0 -2 8 -10 18 -17 15 -13 16 -12 3 4 -13 16 -21 21 -21
13z"/>
<path d="M7645 7570 c9 -16 18 -30 21 -30 2 0 -2 14 -11 30 -9 17 -18 30 -21
30 -2 0 2 -13 11 -30z"/>
<path d="M7881 6984 c0 -11 3 -14 6 -6 3 7 2 16 -1 19 -3 4 -6 -2 -5 -13z"/>
<path d="M7891 6944 c0 -11 3 -14 6 -6 3 7 2 16 -1 19 -3 4 -6 -2 -5 -13z"/>
<path d="M1343 6043 c-9 -21 -18 -57 -21 -80 -2 -23 -1 -273 3 -556 8 -585 2
-548 90 -522 27 9 132 19 244 24 214 11 390 39 431 69 77 57 116 177 126 389
7 155 -9 390 -30 449 -10 26 -15 32 -16 19 -1 -15 -4 -13 -13 10 -33 86 -86
138 -179 177 -49 20 -74 23 -323 28 l-270 6 242 2 c248 2 309 -4 387 -38 45
-21 102 -76 135 -130 12 -19 21 -30 21 -24 0 19 -56 99 -90 127 -85 72 -165
86 -483 87 l-238 0 -16 -37z m484 -235 c10 -9 27 -18 38 -22 17 -5 20 -13 17
-45 -2 -21 1 -48 7 -60 16 -29 23 -363 10 -417 -18 -70 -59 -91 -189 -96 -73
-3 -75 -2 -79 22 -3 23 -4 24 -12 5 -4 -11 -7 108 -6 265 1 204 3 251 7 165
l6 -120 2 156 c1 86 5 159 10 163 13 14 170 1 189 -16z m350 -30 c-3 -7 -5 -2
-5 12 0 14 2 19 5 13 2 -7 2 -19 0 -25z m10 -65 c-3 -10 -5 -4 -5 12 0 17 2
24 5 18 2 -7 2 -21 0 -30z m10 -195 c-2 -24 -4 -5 -4 42 0 47 2 66 4 43 2 -24
2 -62 0 -85z m0 -70 c-3 -8 -6 -5 -6 6 -1 11 2 17 5 13 3 -3 4 -12 1 -19z m0
-70 c-2 -13 -4 -5 -4 17 -1 22 1 32 4 23 2 -10 2 -28 0 -40z m-479 -235 c-10
-2 -26 -2 -35 0 -10 3 -2 5 17 5 19 0 27 -2 18 -5z"/>
<path d="M1621 5474 c0 -11 3 -14 6 -6 3 7 2 16 -1 19 -3 4 -6 -2 -5 -13z"/>
<path d="M2384 6073 c-32 -23 -36 -84 -36 -535 1 -508 7 -641 30 -665 14 -13
33 -15 115 -10 127 8 161 25 164 82 l1 40 -8 -35 c-4 -22 -8 32 -9 142 -1 115
3 179 10 183 19 13 64 -16 89 -56 14 -23 35 -52 48 -66 12 -13 22 -29 22 -34
0 -6 8 -18 19 -27 24 -22 48 -86 57 -150 5 -42 10 -52 28 -54 11 -2 31 3 44
11 17 10 52 13 153 9 102 -4 132 -2 136 8 5 13 -152 335 -188 385 -10 15 -23
38 -28 52 -9 24 -6 28 38 56 80 48 124 120 142 230 29 179 -75 359 -239 412
-60 20 -93 23 -322 26 -140 2 -260 0 -266 -4z m520 -23 c88 -14 176 -59 219
-112 36 -44 68 -114 66 -147 0 -9 -6 2 -13 24 -35 112 -104 176 -231 215 -25
8 -140 15 -300 19 l-260 7 230 2 c127 1 256 -2 289 -8z m-35 -239 c79 -41 91
-167 23 -242 -31 -34 -115 -54 -194 -47 -37 4 -48 2 -51 -11 -3 -9 -5 19 -6
62 -1 50 3 76 9 72 6 -4 10 10 10 34 0 23 -4 41 -10 41 -9 0 -5 66 5 98 7 21
168 16 214 -7z m-101 -308 c-15 -2 -42 -2 -60 0 -18 2 -6 4 27 4 33 0 48 -2
33 -4z m383 -397 c50 -98 89 -180 87 -181 -2 -2 -41 71 -88 163 -46 92 -99
190 -117 219 -18 29 -33 56 -33 60 0 21 69 -99 151 -261z"/>
<path d="M3389 6063 c-12 -13 -13 -115 -11 -592 3 -505 5 -578 19 -593 13 -15
29 -17 112 -13 111 6 161 19 161 43 1 9 0 273 0 587 -1 434 -4 571 -13 577 -7
4 -67 8 -133 8 -101 0 -124 -3 -135 -17z m271 -10 c0 -5 -39 -7 -87 -5 -156 4
-171 8 -40 10 70 1 127 -1 127 -5z m-3 -135 c-3 -7 -5 -2 -5 12 0 14 2 19 5
13 2 -7 2 -19 0 -25z m0 -75 c-3 -10 -5 -4 -5 12 0 17 2 24 5 18 2 -7 2 -21 0
-30z m0 -415 c-3 -8 -6 -5 -6 6 -1 11 2 17 5 13 3 -3 4 -12 1 -19z"/>
<path d="M3788 6074 c-41 -12 -25 -131 37 -284 8 -19 19 -51 24 -70 37 -130
81 -241 108 -271 13 -14 23 -34 23 -46 0 -11 9 -32 20 -46 11 -14 20 -34 20
-45 0 -26 20 -82 30 -82 4 0 10 -19 14 -42 4 -23 13 -49 19 -58 7 -8 25 -55
41 -105 15 -49 31 -97 35 -105 15 -28 56 -40 141 -40 120 0 149 16 173 95 49
161 156 479 251 747 58 164 106 309 106 322 0 20 -6 26 -33 31 -52 10 -248 0
-256 -13 -33 -53 -201 -631 -201 -691 0 -12 -9 -35 -20 -53 -11 -18 -20 -42
-20 -52 0 -43 -12 -3 -15 46 -2 50 -55 241 -163 591 -27 86 -52 161 -56 165
-9 8 -252 13 -278 6z m272 -21 c0 -5 -44 -7 -97 -5 -174 4 -191 8 -45 10 78 1
142 -1 142 -5z m760 0 c0 -5 -42 -7 -92 -5 -168 5 -185 8 -45 10 75 1 137 -1
137 -5z m-732 -103 c0 -8 -6 1 -13 20 -7 19 -13 42 -13 50 0 8 6 -1 13 -20 7
-19 13 -42 13 -50z m50 -160 c0 -8 -8 8 -18 35 -10 28 -18 57 -18 65 0 8 8 -7
18 -35 10 -27 18 -57 18 -65z m31 -100 c0 -9 -4 -8 -9 5 -5 11 -9 27 -9 35 0
9 4 8 9 -5 5 -11 9 -27 9 -35z m48 -162 c-3 -8 -6 -5 -6 6 -1 11 2 17 5 13 3
-3 4 -12 1 -19z m40 -130 c-3 -8 -6 -5 -6 6 -1 11 2 17 5 13 3 -3 4 -12 1 -19z"/>
<path d="M5165 6072 c-132 -1 -243 -6 -247 -10 -22 -22 -28 -154 -30 -639 -1
-380 2 -527 10 -535 9 -9 46 -8 149 0 77 7 232 11 350 9 148 -3 217 -1 228 7
13 9 15 33 13 141 l-3 130 -214 1 c-250 2 -233 -7 -227 120 4 81 14 98 50 85
12 -4 59 -9 106 -10 47 -1 111 -6 142 -12 94 -16 99 -10 97 121 -1 77 -5 110
-14 114 -7 2 -97 5 -200 5 -129 0 -191 4 -199 12 -8 8 -5 9 12 4 21 -6 22 -5
14 12 -11 20 -14 130 -5 177 l5 29 192 -7 c105 -4 200 -9 212 -12 17 -5 22 0
28 27 11 59 7 219 -6 224 -23 7 -219 10 -463 7z m465 -23 c0 -11 -593 -10
-665 2 -22 4 119 7 313 8 243 1 352 -2 352 -10z m0 -896 c0 -5 -69 -7 -152 -5
-279 4 -306 8 -75 10 125 1 227 -1 227 -5z"/>
<path d="M5753 6072 c-26 -4 -29 -15 -38 -117 -7 -85 7 -135 38 -136 12 0 72
0 132 0 61 1 117 -3 124 -8 13 -8 14 -70 11 -423 -4 -507 -5 -489 12 -499 7
-5 60 -9 118 -9 82 0 111 4 129 16 l23 17 -7 427 c-4 234 -4 436 -1 448 7 20
14 22 95 22 49 0 112 -5 142 -10 75 -14 78 -9 82 138 3 112 2 124 -15 133 -17
9 -788 10 -845 1z m847 -19 c0 -9 -848 -8 -857 1 -4 3 188 6 425 6 238 0 432
-3 432 -7z"/>
<path d="M6887 6068 c-27 -21 -401 -1148 -395 -1191 2 -15 10 -22 26 -21 12 0
70 1 130 2 146 3 155 10 186 151 13 57 30 107 37 112 19 13 339 3 352 -10 22
-22 41 -88 43 -150 3 -99 13 -105 161 -96 92 5 125 11 143 25 l24 18 -29 91
c-16 50 -30 89 -33 87 -2 -2 6 -34 17 -72 12 -37 19 -69 17 -71 -2 -3 -7 6
-11 19 -4 13 -43 135 -87 271 -44 137 -78 250 -76 253 3 2 13 -23 23 -56 10
-33 20 -58 23 -56 2 3 -39 141 -91 308 -52 167 -100 322 -106 344 -8 30 -18
43 -34 48 -44 12 -302 7 -320 -6z m416 -284 c49 -152 86 -278 84 -281 -3 -2
-17 38 -33 89 -16 51 -55 174 -89 273 l-60 180 -158 0 c-86 0 -157 3 -157 8 0
4 73 7 163 7 l163 0 87 -276z m-205 -177 c6 -7 15 -37 21 -69 7 -31 21 -80 31
-109 11 -28 17 -56 14 -60 -3 -5 -54 -9 -115 -9 -120 0 -118 -1 -95 65 19 52
66 256 66 283 0 11 10 28 23 37 22 15 22 15 34 -56 7 -39 16 -76 21 -82z m69
-267 c18 -5 -19 -9 -110 -9 -76 -1 -136 2 -133 7 6 10 209 12 243 2z"/>
<path d="M7706 6071 c-8 -12 -10 -1167 -2 -1180 7 -11 210 -2 244 10 13 5 20
13 17 19 -3 5 1 10 9 10 9 0 16 5 16 10 0 6 -5 10 -11 10 -6 0 -8 7 -5 16 5
14 8 768 3 952 -1 45 1 82 6 82 4 0 7 13 7 29 0 17 -3 32 -7 34 -19 11 -271
18 -277 8z m274 -21 c0 -10 -247 -6 -258 4 -3 3 54 6 126 6 78 0 132 -4 132
-10z"/>
<path d="M8193 6072 c-9 -6 -13 -125 -15 -492 -1 -267 -2 -529 -2 -582 -1 -53
2 -99 6 -103 4 -4 24 -1 45 6 25 8 138 14 343 18 l304 6 7 25 c4 14 7 67 8
118 l1 92 -217 2 -218 2 215 6 215 6 -207 2 -208 2 0 429 c0 334 -3 430 -12
433 -7 3 -65 6 -128 7 -63 2 -117 5 -119 7 -2 2 56 4 130 5 84 0 127 4 114 9
-25 11 -246 12 -262 2z"/>
<path d="M5528 5613 c7 -3 16 -2 19 1 4 3 -2 6 -13 5 -11 0 -14 -3 -6 -6z"/>
<path d="M7453 5316 c3 -8 11 -33 17 -56 6 -23 14 -40 17 -37 6 6 -26 107 -34
107 -3 0 -3 -6 0 -14z"/>
<path d="M7492 5205 c0 -5 6 -26 13 -45 7 -19 14 -28 14 -20 0 8 -6 29 -14 45
-7 17 -13 26 -13 20z"/>
<path d="M2516 4644 c-21 -20 -20 -27 4 -49 11 -10 20 -24 20 -32 0 -7 16 -28
36 -45 19 -17 44 -47 55 -67 78 -145 326 -443 496 -597 452 -408 892 -623
1483 -723 481 -82 1085 -29 1545 135 318 114 689 345 963 601 266 248 414 434
524 655 72 146 78 138 -107 138 l-154 0 -29 -42 c-16 -24 -37 -58 -46 -76 -30
-58 -199 -275 -281 -361 -110 -115 -295 -268 -439 -363 -131 -87 -348 -197
-491 -248 -49 -18 -125 -45 -167 -61 -92 -33 -265 -71 -467 -102 -208 -31
-495 -31 -711 1 -187 28 -223 36 -365 74 -287 76 -520 184 -784 361 -57 38
-101 64 -97 58 18 -28 260 -177 412 -253 253 -126 506 -205 799 -250 127 -19
191 -22 415 -23 192 0 246 -2 195 -8 -96 -12 -457 -1 -585 17 -395 56 -741
180 -1060 380 -103 64 -201 137 -195 146 3 4 -17 25 -43 46 -81 65 -212 186
-295 271 -44 46 -83 81 -85 78 -7 -7 -52 36 -52 48 0 6 10 2 23 -9 l22 -19
-19 23 c-11 12 -21 20 -24 17 -7 -7 -32 15 -32 27 0 6 8 4 17 -3 10 -8 4 4
-13 26 -18 22 -61 86 -98 143 l-66 102 -144 0 c-118 0 -147 -3 -160 -16z m309
-14 c3 -10 36 -61 74 -112 81 -113 88 -123 73 -114 -26 16 -178 246 -163 246
5 0 12 -9 16 -20z m-192 3 c-18 -2 -48 -2 -65 0 -18 2 -4 4 32 4 36 0 50 -2
33 -4z m4975 0 c-43 -2 -113 -2 -155 0 -43 1 -8 3 77 3 85 0 120 -2 78 -3z
m-4215 -648 c47 -38 84 -71 82 -74 -11 -10 -230 182 -330 289 -109 116 -93
107 35 -20 69 -69 165 -156 213 -195z m2792 -405 c-3 -5 -12 -10 -18 -10 -7 0
-6 4 3 10 19 12 23 12 15 0z m-75 -30 c-8 -5 -19 -10 -25 -10 -5 0 -3 5 5 10
8 5 20 10 25 10 6 0 3 -5 -5 -10z m-110 -40 c-8 -5 -19 -10 -25 -10 -5 0 -3 5
5 10 8 5 20 10 25 10 6 0 3 -5 -5 -10z m-213 -66 c-3 -3 -12 -4 -19 -1 -8 3
-5 6 6 6 11 1 17 -2 13 -5z m-40 -10 c-3 -3 -12 -4 -19 -1 -8 3 -5 6 6 6 11 1
17 -2 13 -5z m-44 -11 c-7 -2 -19 -2 -25 0 -7 3 -2 5 12 5 14 0 19 -2 13 -5z
m-60 -10 c-7 -2 -19 -2 -25 0 -7 3 -2 5 12 5 14 0 19 -2 13 -5z m-50 -10 c-7
-2 -19 -2 -25 0 -7 3 -2 5 12 5 14 0 19 -2 13 -5z m-65 -10 c-10 -2 -26 -2
-35 0 -10 3 -2 5 17 5 19 0 27 -2 18 -5z m-80 -10 c-10 -2 -26 -2 -35 0 -10 3
-2 5 17 5 19 0 27 -2 18 -5z"/>
</g>
</svg>
