<svg id="Capa_1" data-name="Capa 1" xmlns="http://www.w3.org/2000/svg" xmlns:xlink="http://www.w3.org/1999/xlink" viewBox="0 0 20.33 24.95"><defs><clipPath id="clip-path" transform="translate(-0.19 -0.31)"><rect class="cls-1" x="-2.09" y="-2.52" width="24.86" height="30.6"/></clipPath></defs><g class="cls-2"><g id="Enmascarar_grupo_8" data-name="Enmascarar grupo 8"><path id="notifications_FILL0_wght300_GRAD0_opsz48" data-name="notifications FILL0 wght300 GRAD0 opsz48" class="cls-3" d="M.69,20.43h0a.77.77,0,0,1,.69-.76H3.29V10.11A7.07,7.07,0,0,1,4.8,5.52,6.58,6.58,0,0,1,8.85,3.1v-1a1.15,1.15,0,0,1,.43-1,1.66,1.66,0,0,1,2.12,0,1.22,1.22,0,0,1,.43,1v1a6.6,6.6,0,0,1,4.06,2.42,6.92,6.92,0,0,1,1.54,4.55v9.65h1.92a.69.69,0,0,1,.68.68h0a.68.68,0,0,1-.68.68h-18a.65.65,0,0,1-.69-.61Zm9.65,4.33a2,2,0,0,1-1.56-.62,2.14,2.14,0,0,1-.68-1.56.06.06,0,0,1,.06-.06h4.36a.06.06,0,0,1,.06.06h0A2.36,2.36,0,0,1,12,24.14,2.43,2.43,0,0,1,10.34,24.76ZM4.68,19.65H16V10.09a5.7,5.7,0,0,0-1.63-4,5.2,5.2,0,0,0-4-1.68A5.43,5.43,0,0,0,6.35,6a5.12,5.12,0,0,0-1.61,4v9.57Z" transform="translate(-0.19 -0.31)"/></g></g></svg>